<svg fill="currentColor" xmlns="http://www.w3.org/2000/svg" viewBox="0 0 48 48"><path d="M 24 4 C 12.972066 4 4 12.972074 4 24 C 4 35.027926 12.972066 44 24 44 C 35.027934 44 44 35.027926 44 24 C 44 12.972074 35.027934 4 24 4 z M 24 7 C 33.406615 7 41 14.593391 41 24 C 41 33.406609 33.406615 41 24 41 C 14.593385 41 7 33.406609 7 24 C 7 14.593391 14.593385 7 24 7 z M 24 9 A 1.5 1.5 0 0 0 24 12 A 1.5 1.5 0 0 0 24 9 z M 30.773438 10.791016 A 1.50015 1.50015 0 0 0 29.451172 11.558594 L 24 21 A 3 3 0 0 0 21.402344 25.5 L 20.226562 27.537109 A 1.50015 1.50015 0 1 0 22.824219 29.037109 L 24 27 A 3 3 0 0 0 26.597656 22.501953 L 32.048828 13.058594 A 1.50015 1.50015 0 0 0 30.773438 10.791016 z M 17.25 10.808594 A 1.5 1.5 0 0 0 17.25 13.808594 A 1.5 1.5 0 0 0 17.25 10.808594 z M 12.308594 15.75 A 1.5 1.5 0 0 0 12.308594 18.75 A 1.5 1.5 0 0 0 12.308594 15.75 z M 35.691406 15.75 A 1.5 1.5 0 0 0 35.691406 18.75 A 1.5 1.5 0 0 0 35.691406 15.75 z M 10.5 22.5 A 1.5 1.5 0 0 0 10.5 25.5 A 1.5 1.5 0 0 0 10.5 22.5 z M 37.5 22.5 A 1.5 1.5 0 0 0 37.5 25.5 A 1.5 1.5 0 0 0 37.5 22.5 z M 12.308594 29.25 A 1.5 1.5 0 0 0 12.308594 32.25 A 1.5 1.5 0 0 0 12.308594 29.25 z M 35.691406 29.25 A 1.5 1.5 0 0 0 35.691406 32.25 A 1.5 1.5 0 0 0 35.691406 29.25 z M 17.25 34.191406 A 1.5 1.5 0 0 0 17.25 37.191406 A 1.5 1.5 0 0 0 17.25 34.191406 z M 30.75 34.191406 A 1.5 1.5 0 0 0 30.75 37.191406 A 1.5 1.5 0 0 0 30.75 34.191406 z"/>
</svg>